# xmcd CD database file
#
# Track frame offsets:
#	150
#	19419
#	39504
#	60126
#	88762
#	109624
#	129393
#	151519
#	170923
#	198936
#	216393
#	238929
#
# Disc length: 3474 seconds
#
# Revision: 0
# Processed by: cddbd v1.5.1PL0 Copyright (c) Steve Scherf et al.
# Submitted via: CDex 1.51
#
DISCID=9d0d900c
DTITLE=Cottonbomb - Don't Worry Little Baby
DYEAR=2005
DGENRE=Blues
TTITLE0=A Pile Of Broken Glass
TTITLE1=Short Story 'bout Women
TTITLE2=4 O'Clock In The Morning
TTITLE3=1967
TTITLE4=If You Fly Away
TTITLE5=Don't Worry Little Baby
TTITLE6=One Hundred Days
TTITLE7=Johnny Tells His Story
TTITLE8=Armchair
TTITLE9=The Beast In Me
TTITLE10=The Day He Struck Back
TTITLE11=I Can't Breathe Anymore
EXTD=YEAR: 2005
EXTT0=
EXTT1=
EXTT2=
EXTT3=
EXTT4=
EXTT5=
EXTT6=
EXTT7=
EXTT8=
EXTT9=
EXTT10=
EXTT11=
PLAYORDER=
